<svg version="1" xmlns="http://www.w3.org/2000/svg" width="1249.333" height="1249.333" viewBox="0 0 937.000000 937.000000"><path d="M694.3 26.1c-4.4 1.3-10 7.2-13.2 13.9-2.3 4.9-2.6 6.7-2.6 16.5 0 7.1.5 12.2 1.4 14.5 2.1 5.1 7 9.9 11.5 11.1 5.5 1.5 14 .4 19.2-2.5l4.4-2.5.1 5.2c.2 13 2.9 21.4 8.6 27.2 4.8 4.8 8.2 5.9 20.5 7 10.9.9 14.1 3.6 14 11.8 0 6.2-2.6 12.2-6.2 14.8-1.4 1-4.7 2-7.5 2.4-2.7.3-6 .8-7.1 1.1-1.3.3-2.3 0-2.6-.8-1-2.3-23.7-33.9-31.3-43.2-9-11.3-14.6-17.4-31.9-34.8-21.2-21.5-36.8-33.5-50.5-39.2-6.5-2.6-22.1-3-27.7-.6-5.7 2.4-7.9 6.1-13.1 21.3-6.7 19.5-6.2 25.7 2.9 41.9 2.1 3.7 3.8 7 3.8 7.3 0 .5 1.5 2.5 6.4 8.2 1.6 1.8 5 4.6 7.5 6 2.5 1.5 6.4 3.6 8.5 4.9l3.9 2.2-8.9-.6c-12.3-.9-34.1-.8-38.9.2-4.8 1-11.8 3.7-17.1 6.6-7 3.9-7.3 4.5-6.8 11.6 1.2 18.3 9.2 34.5 23.6 47.9 5.6 5.2 9.7 7.8 18.7 12.2 13.2 6.2 13.6 6.4 21.1 9.3 9.6 3.8 9.8 4 4.5 3.4-2.7-.3-8.2-1.6-12.2-3-8.5-2.9-13.3-3-16.3-.6l-2.2 1.8 2.3 1.5c3.1 2 14.1 6.3 19.9 7.9 4.6 1.2 5.4 1.4 12.5 2.5 4.7.7 20.9.7 24.5 0 1.4-.3 3.6-.7 5-1 1.4-.3 4-.8 5.8-1.1 1.8-.4 6.8-2 11-3.6 10.6-4.1 12.2-4.5 24.2-6.4 12.7-1.9 20.1-4.3 29.8-9.6l7.3-4-.6 4.9c-.4 2.6-.9 6.1-1.1 7.8-.3 1.6-.7 4.8-.9 7-.3 2.2-1 7.4-1.6 11.5-.7 4.1-1.3 8.6-1.4 10-.2 1.4-.3 2.8-.4 3.1-.1.3-3.8-.2-8.3-1.1-17.6-3.7-32.5-2-51.4 5.6-8.7 3.5-18.4 8.2-18.4 8.8 0 .3 2.3 1.9 5 3.7 2.8 1.8 5 3.6 5 4.1 0 .5-.4.7-.8.4-.5-.3-5.7-.8-11.8-1.2-6-.3-11.8-.8-12.9-1.1-4-.9-54.4-1.3-56.7-.4-2.1.8-3.1.2-7.8-4.6-12.4-12.5-37.8-26.3-64-34.8-3-1-5.8-2.3-6.2-2.8-.9-1.5.3-33.6 1.7-42.7.2-1.4.9-6.3 1.5-11 2.2-17.8 7.7-45.4 12.6-63.5 1.9-7.2 3.7-14 4-15.2.2-1.2.9-3.4 1.4-4.8.9-2.3.8-2.5-2.3-2.5-1.7-.1-4.8-.3-6.7-.5-21.9-2.5-25.3-3-31.4-4-3.2-.6-32-6.5-39.1-8-5.5-1.2-13.2-2.9-14.5-3.1-.8-.1-5.3-.9-10-1.8-9.6-1.7-13.9-2.3-20.7-3.1-2.7-.3-7.9-1-11.8-1.4-9.2-1.1-40.5-1.1-48.1 0-3.2.5-7.4 1.2-9.2 1.4C283.1 60.1 243 75.8 208.5 97c-11.9 7.3-32.5 21.4-37.2 25.5-.6.5-3 2.6-5.4 4.5-9.8 8-13.8 11.6-22.1 19.6-28.3 27.5-50.6 57.8-67 90.9-3.3 6.6-6.3 12.7-6.8 13.6-4.9 9.2-13.3 33.8-18.5 54.4-.5 1.6-.9 3.4-1.1 4-.5 2-5.2 30.2-5.9 35.5-1.1 8.7-1.4 50.8-.4 58.5 2.2 17.6 3.2 23.5 5.8 33.4 8.5 32.5 22.8 58 44.6 79.5 30.2 29.7 68.3 42.8 122 42.1 30.5-.4 55.2-5.6 85-17.8 1.6-.7 7.8-3.6 13.8-6.5 8.3-4 10.7-4.8 10.3-3.5-.2 1-2.3 8.3-4.6 16.3s-5.8 19.7-7.8 26c-2 6.3-3.7 11.9-3.8 12.5-.5 2.3-14 40.7-15.4 44-.5 1.1-3.2 7.6-6 14.5-6.8 16.3-17.4 37.2-24.8 48.5-18.7 28.7-37.7 41.4-62.2 41.6-17.4.2-29.5-6.8-50.4-29-14.8-15.7-21.3-21.1-29.8-24.3-8.8-3.3-17.4-1.5-25.2 5.3-10 8.8-11.9 21.4-5.2 35.3 7 14.4 25.1 29.2 43.8 35.7 15 5.1 26.6 7 44.3 6.9 12.7-.1 18.5-.6 28.8-2.5 1.5-.3 3.8-.7 5.1-.9 3.5-.6 17.8-4.6 20.1-5.6 1.1-.5 6.1-2.5 11-4.6 5-2 9.7-4.3 10.6-5 .8-.8 1.9-1.4 2.2-1.4 1.4 0 17.3-10.3 23.6-15.3 12.5-9.8 32-30.5 38.1-40.3.8-1.3 1.7-2.4 2-2.4.3 0 .5 3.3.6 7.3.2 20.4 4.6 37.9 14.4 58.2 21.7 44.6 53.5 63.8 73.8 44.5 9.3-8.9 10.3-23.8 2.3-32.6-1.6-1.8-8.2-6.4-14.7-10.4-20.9-12.7-30.8-22.4-38.2-37.5-9.6-19.3-11.4-46.7-5.1-74.5.6-2.5 1.3-5.6 1.5-7 1.2-6.4 8.8-27 13.8-37.3C398 535.2 448.1 488.3 514.5 460c14-6 36.7-13.5 46.5-15.4 32.1-6.3 39.1-7 65-7.1 16 0 28.8.7 36.5 2 20.3 3.5 34.5 7.6 49.5 14.3 11.6 5.1 25.3 13 33 18.9 45.5 35 70.3 82.6 75.6 144.8 1.4 15.7.8 43-1.2 58.5-8.3 65.7-39.6 124.8-85.9 162.4-15.1 12.2-46.2 30-58 33.2-.5.1-5 1.7-10 3.4-12.7 4.4-32.3 8.9-45.5 10.5-2.5.3-6.1.7-8 1-10.9 1.5-40.7 2.1-51.5 1-12.5-1.2-18.1-1.8-25-3-1.1-.1-5.5-.8-9.8-1.5-4.3-.7-7.9-1.6-8.2-2-.2-.4 3.3-8.2 7.9-17.3 15.1-30.2 31.4-74.7 43.7-119.2 3.8-13.7 14.7-57.3 16.4-65.5.1-.8.8-3.5 1.5-6s1.3-5.2 1.5-6c.2-.8 1.1-4.7 2-8.5.9-3.9 1.8-8 2.1-9.1.2-1.2 2-8.8 3.9-17 2-8.2 5-20.8 6.6-27.9 2.6-11 15-60.9 16.3-65.5 4.3-15.5 16.6-53.2 20-61.5 1.7-3.9 1.3-4.1-4.4-2.5-4.3 1.3-45.8 9.8-50.9 10.5-2 .3-4.5.7-5.6.9-1.1.2-4.2.7-7 1-2.7.4-7.7 1.1-11 1.6s-8.5 1.2-11.5 1.5c-10.3 1.1-13.5 1.6-14.1 2.3-.6.7-3.9 14.5-3.9 16.3 0 .4 1 .6 2.3.3 5-1.1 14.5-.6 17.4.9 8.9 4.6 8.9 12.6.5 46.7-3.3 13.5-8.4 33.9-11.2 45.5-6.7 27.7-22.2 89.1-25.9 103-1.6 6-7 26.3-11.9 45-12.1 45.5-23.9 79.9-35.9 104.5-4.6 9.4-6.8 12.7-12.3 18.1-7 6.9-11.2 8.8-23.5 10.5-2.7.3-5.9.8-6.9 1-1.9.3-19.1 1.6-23.3 1.7-1.8.1-3 1.9-6.7 9.9-2.6 5.4-4.6 10-4.6 10.3 0 .2 5.7.2 12.8-.1 27.8-1.1 86.7-.5 106.7 1.1 2.2.1 9 .6 15 .9 6.1.3 13 .8 15.5 1.1 2.5.3 7.9.7 12 1 4.1.2 12.2.8 18 1.2 13.9 1 53.7 1 62.5 0 11.2-1.2 12.8-1.4 17.5-2.2 32.5-5 67-16.1 98.2-31.8 10.9-5.4 31.5-18.8 42.2-27.5 8.3-6.7 30.1-28.1 37.2-36.7 16.4-19.6 31.9-43.1 41.9-63.4 3.9-8 5-10.4 8.9-19.4 7.2-16.6 16.1-50.4 18.2-69.6.2-2 .8-6.5 1.2-10.1.9-8.4.9-42.4 0-51.5-1.4-14.2-4.2-27.6-8.5-40.8-1.5-4.5-2.7-8.4-2.7-8.7-.3-1.8-7.9-18-12-25.5-20.4-37.1-54.6-69.1-94.1-87.9-10.6-5-13.3-6.2-22.2-9.4-16.7-6.1-39.7-11.8-55.3-13.7-2.5-.3-5.6-.8-7-1-12.7-2.1-52-3.2-71-2-9.3.6-19.1 1.5-22 1.9-1.4.3-4.9.7-7.9 1-2.9.4-5.8.9-6.2 1.2-.5.3-.9.2-.9-.3 0-1 18.7-11.7 37-21.1 15.8-8.2 20.6-11.3 32-21.1 8.2-7.1 27-25.6 31.4-31.1 2.6-3.2 2.9-3.3 4.1-1.6 1.3 1.7 1.5 1.7 4.7 0 10.2-5.2 19.6-13.9 26.5-24.6 2.4-3.6 4.3-7 4.3-7.5s.9-2.4 1.9-4.4c2.1-4 5.6-14.8 6.5-20 1.2-7.3 1.6-10.6 2-16.4.4-4.8 1.8-8.6 6.9-19 6.6-13.3 10.3-21.2 15.2-32.1 2.2-5.1 3.3-6.5 6.6-7.9 5.1-2.4 11.2-8.2 13.9-13.5 6.6-12.9 1.7-33.9-10.2-44.6-3.2-2.9-3.4-3.5-3.2-8.5.6-9.1 2-14.2 6.3-22.8 2.4-4.5 3.7-5.3 13.9-7.6 13-3 17.5-8.3 16.7-19.5-.5-6.2-2.8-16.7-4-17.8-.3-.4-3.1-.6-6.3-.7h-5.6l-1.3-8.1c-5-32.5-21.4-39.9-57-25.8C723.2 41 718 43 717.7 43c-.2 0-.9-1.7-1.5-3.8-3.6-11.6-11.2-16.2-21.9-13.1zm-68.8 12.4c11.5 9.6 13 11.2 12 13.3-.9 2-1.7 1.5-12.9-6.8-6.6-5-12-9.1-12.2-9.3-.2-.2 1.8-.4 4.4-.4 3.9-.1 5.3.4 8.7 3.2zM616 58.2c13.1 7.5 14.7 8.7 19 14.7 2.7 3.7 4.7 6.7 4.5 6.9-.3.3-42.4-20.5-43.4-21.4-.4-.4 4.7-8.4 5.3-8.4.2 0 6.8 3.7 14.6 8.2zm50.2 19.5l3.1 3.1-3.9 2-3.9 2-5.7-4.5c-3.2-2.5-5.6-4.9-5.4-5.2.3-.4 3.2-.6 6.6-.5 5.4.1 6.5.4 9.2 3.1zm-288.5.7c32.6 2.4 62 20.3 75.5 46.1 5.3 10.2 8.3 20.3 11.3 38 1 5.6 1.4 45.4.5 50.9-.6 4.3-.5 4.7 1.9 5.9 1.4.8 17.7 10.5 36.1 21.7 18.4 11.2 34.4 20.8 35.5 21.4 1.1.7 3.9 2.4 6.2 3.9 2.4 1.5 4.7 2.7 5.3 2.7.5 0 1 .3 1 .7 0 2.2 26.1 11.9 47 17.7 10.7 2.9 18.7 4 38 5.1 16.6 1 18 1.2 18.6 1.7.3.3 0 3.4-.5 6.9-.6 3.4-.9 6.5-.6 6.7.2.2 3.3.4 6.9.3 3.6 0 6.6.1 6.6.4 0 .2-3.8 6.3-8.5 13.5-20.9 32-25.3 38.9-28.5 44.2-3 4.9-4.1 6-7.5 6.8-19.8 5.3-43.9 20.5-65.5 41.6-5.7 5.6-9.5 8.5-11.5 8.8-6.5 1.2-25.3 7.4-36.5 12.1-8.4 3.5-40 19.3-46.5 23.2-23.6 14.1-40 26.8-59.3 45.8-6.1 6.1-11 10.4-10.7 9.6.8-2.7 9.7-35.5 10-37.1.2-.8 1.5-6.2 3-12s2.8-11.2 3-12c1.5-7.1 7.2-28 9.6-35.4 8.1-24.3 14.5-30.4 33.9-32.2 3.6-.4 6.7-.8 6.9-1 .2-.2 1.4-4.9 2.6-10.3l2.2-10-8.1.4c-7.4.5-18.6 1.2-29.1 2-17.6 1.3-27.5 1.6-43.5 1.5-44.6-.5-71.9-.4-77 .2-14.7 1.9-14.6 1.9-14.8 4.2-.1 1.1-.8 5.5-1.6 9.6-1.4 7.2-1.3 9.6.3 8.6 1-.6 22.5-2 30.6-1.9 19.7 0 30.8 5.6 33.3 16.8 2.2 10.1-2.5 35.5-15 80.2-3.1 11.1-3.1 11.2-7.7 14-11.6 7.1-36.7 17.4-49.8 20.4-30.3 6.8-56.3 7.1-77.2.7-23.1-7-50.3-27.1-63.6-46.8-11.9-17.8-20.7-43.8-23-68-.3-3.6-.8-8.3-1-10.5-.6-5.1-.6-37.7 0-43 .2-2.2.7-6.9 1-10.5.5-5.8 1.5-12.6 3-21.5 2.6-15 8.8-38 14.4-52.9 10.3-27.3 25.6-56 42.8-80.3 37.5-53 95.1-93.3 150.1-105.3 12.7-2.8 31.3-4.8 38.7-4.4 1.7.2 6.7.5 11.2.8zm221.5 5c2.9 1.4 14.4 6.5 25.6 11.4 14.7 6.5 21.5 10 25 13 4 3.6 4.3 4 1.9 3.2-1.6-.6-7.9-2.3-14-4-6.2-1.6-16.8-4.4-23.7-6.3l-12.4-3.3-4.2-8.2c-2.3-4.5-4.1-8.2-3.8-8.2.2 0 2.7 1.1 5.6 2.4zm70.4 10.8l6.6 3.2 1.8-2.2 1.8-2.1 6.8 5.7c3.8 3.1 8.9 7.2 11.2 9.1 2.9 2.3 8.6 9.8 17.1 22.5l12.8 19.1-4.4 2.7-4.4 2.8-1-2.3c-.6-1.2-2.9-3.6-5.2-5.4-2.3-1.7-5.1-4-6.2-5-1.1-1-6.3-5.2-11.5-9.4s-15.3-12.5-22.5-18.4l-13-10.8-.3-6.3c-.2-5.9-.1-6.4 1.8-6.4 1.1 0 5 1.4 8.6 3.2zm-35.1 19.9c13.8 1.6 14.5 1.8 14.5 3.9 0 1.2-.7 2-1.7 2.1-1 0-2.7.2-3.8.4-1.1.2-4.6.7-7.7 1-5.6.6-5.9.5-11.5-3.6-8.4-6.1-8.4-6.1-2.8-5.4 2.8.3 8.6 1 13 1.6zm47.5 19.8c7.8 5.1 13.9 9.5 13.8 9.7-.4.3-49-14.5-49.7-15.2-.2-.2 0-.4.5-.5.5 0 1.6-.2 2.4-.4.8-.1 3.3-.6 5.5-.9 2.2-.4 5.6-1 7.5-1.5 1.9-.4 4.1-.7 4.7-.6.7.1 7.6 4.3 15.3 9.4zm-75.7-6.1c.1 0 3.6.5 7.8 1.2l7.7 1.2 7.3 7.4 7.3 7.4h-5.9c-5.4 0-6.7-.5-16.2-6.1-12.4-7.4-18.7-14-11.3-11.9 1.7.5 3.1.8 3.3.8zm73 19.6c18.6 6.2 33.8 11.7 33.8 12.2 0 2-4.8 1.1-30.5-5.6-27.9-7.3-28.4-7.5-37.1-15.5-2.5-2.3-3.2-3.4-2-3 1.1.4 17.2 5.7 35.8 11.9zm-86.4-7.5c6.2 1.8 15.7 5.4 21.2 8.1 9.3 4.7 9.9 5.2 9.9 8.1 0 3.3.1 3.3-13 1.5-19.5-2.7-17.6-2-43-15.9-6.7-3.6-6.7-3.6-5.3-4.5 2.9-1.8 19.2-.3 30.2 2.7zm-12.3 17.2l6.4 4.1-2.8 3.9c-1.5 2.1-3.1 3.9-3.6 3.9-1.2 0-15.6-9-15.6-9.8 0-1.5 5.5-6.2 7.3-6.2 1 0 4.8 1.9 8.3 4.1zm86.6.1c11.9 3.3 15.2 4.7 17.4 6.9 3 3.2 3 3.6-.6 4.2-1.4.3-6.3 1.2-11 2.1-4.7.9-10.1 1.9-12 2.2-1.9.3-3.8.8-4.3 1.1-.7.4-17.4-8.1-19.4-10.1-.6-.6-1.5-2.7-1.8-4.7l-.7-3.6 6.9-.9c3.7-.5 7.7-1 8.8-1.1 1.1 0 8.6 1.7 16.7 3.9zm32.8 7.5c6.1 2.7 6.8 3.8 3.7 5.7-1.4.9-2.5.2-6.3-3.7-2.6-2.6-4.4-4.7-4-4.7.3 0 3.3 1.2 6.6 2.7zm-68.9 1.8c3 1.8 10.9 8.8 10.9 9.7 0 .4-1.6 3.3-3.6 6.2-4.1 6.2-3.6 6.1-26.4 8.1-10.9 1-17.5 1.7-18.1 2-.3.2-2.4-1.6-4.7-4l-4.3-4.3 9-9c4.9-4.9 9.5-9.2 10.1-9.4 2.5-.8 25.6-.2 27.1.7zm64.3 8.7c.3 1.7.5 3.2.4 3.3-.2 0-3.8 2.7-8 5.9l-7.7 5.8-2.8-3.3c-5.1-5.9-5.6-6.9-4.1-7.4.7-.3 5.4-2 10.3-3.9 5-1.9 9.5-3.4 10.1-3.5.6-.1 1.4 1.3 1.8 3.1zm29 5.5c-.9 5.1-1.5 5.5-4.4 3.2l-2.5-1.9 3-2.5c4.1-3.4 4.7-3.2 3.9 1.2zm-60 4.5c.8 1.8 1.7 4.6 2 6.3.6 2.8.3 3.2-5.1 6.1l-5.8 3.1-6-3.8c-3.3-2.1-5.9-4.4-5.7-5.1.2-.7 1.9-3.2 3.8-5.5 3.4-4.2 3.7-4.3 9.5-4.3s6 .1 7.3 3.2zm53.6 3c0 .3-3.5 2.1-7.7 3.8-4.3 1.8-10.2 4.3-13 5.6-2.9 1.2-5.3 2.1-5.3 1.9 0-.2 4.8-3.7 10.6-7.9 10.5-7.4 10.7-7.5 13-5.8 1.3.9 2.4 2 2.4 2.4zm-77.2 11.7l2 4.9-3.8 1c-4.2 1-4.7.7-8.3-5-2.2-3.6-2.1-4.6.6-5.1 6.6-1.3 7.3-.9 9.5 4.2z"/></svg>